<mxfile host="app.diagrams.net" modified="2024-06-25T08:23:24.903Z" agent="Mozilla/5.0 (Windows NT 10.0; Win64; x64) AppleWebKit/537.36 (KHTML, like Gecko) Chrome/126.0.0.0 Safari/537.36" version="24.6.2" etag="SFzlfqfENPLnY5vOqwoD" type="github">
  <diagram name="Page-1" id="ffuhlFCiFWuZsQcSOQGZ">
    <mxGraphModel>
      <root>
        <mxCell id="0" />
        <mxCell id="1" parent="0" />
      </root>
    </mxGraphModel>
  </diagram>
</mxfile>
